<svg width="41" height="41" viewBox="0 0 41 41" fill="none" xmlns="http://www.w3.org/2000/svg">
<path d="M18.6022 37.9316C19.1122 38.4415 19.7977 38.7258 20.5167 38.7258C21.2274 38.7258 21.9296 38.4332 22.4313 37.9316L37.4551 22.9077C39.7376 20.6253 40.9916 17.5904 41 14.3716C41 11.1444 39.7459 8.10957 37.4635 5.82715C35.1811 3.54472 32.1546 2.29065 28.9274 2.29065C25.7588 2.29065 22.7741 3.50292 20.5084 5.7101C18.2343 3.49456 15.2412 2.27393 12.0642 2.27393C8.84543 2.27393 5.81892 3.528 3.5365 5.80207C1.25408 8.08449 0 11.1194 0 14.3465C0 17.5653 1.26244 20.6002 3.54486 22.8826L18.6022 37.9316ZM4.99123 7.2568C6.88071 5.36732 9.39723 4.32225 12.0726 4.32225C14.748 4.32225 17.2728 5.36732 19.1707 7.26516L19.7894 7.88384C19.9816 8.07613 20.2408 8.18481 20.5167 8.18481C20.7843 8.18481 21.0518 8.07613 21.2441 7.88384L21.846 7.28188C23.7439 5.38404 26.2604 4.33897 28.9441 4.33897C31.6195 4.33897 34.136 5.38404 36.0255 7.27352C37.9233 9.17136 38.96 11.6879 38.96 14.3632C38.96 17.0386 37.915 19.5551 36.0171 21.453L20.9849 36.4852C20.7425 36.7276 20.2993 36.7276 20.0485 36.4852L4.99959 21.4362C3.10175 19.5384 2.05669 17.0219 2.05669 14.3465C2.05669 11.6712 3.10175 9.15464 4.99123 7.2568Z" fill="#EA7A93"/>
<path fill-rule="evenodd" clip-rule="evenodd" d="M29.4507 14.3266C29.5958 13.8667 29.4507 13.5324 28.8086 13.5324H26.6737C26.1351 13.5324 25.8864 13.8251 25.7413 14.1382C25.7413 14.1382 24.6431 16.8125 23.1094 18.5464C22.612 19.0478 22.3842 19.2149 22.1147 19.2149C21.9696 19.2149 21.7828 19.0478 21.7828 18.5884V14.305C21.7828 13.7619 21.6173 13.5112 21.1611 13.5112H17.8036C17.4717 13.5112 17.2646 13.7619 17.2646 14.0127C17.2646 14.5349 18.0315 14.6605 18.1142 16.1228V19.3002C18.1142 19.9895 17.9919 20.1155 17.7204 20.1155C16.9952 20.1155 15.2336 17.4204 14.1769 14.3494C13.9715 13.7412 13.7627 13.5112 13.2238 13.5112H11.0684C10.4467 13.5112 10.3432 13.8035 10.3432 14.117C10.3432 14.6812 11.0684 17.5223 13.7212 21.2827C15.4827 23.851 17.9903 25.2313 20.2492 25.2313C21.6173 25.2313 21.7828 24.9178 21.7828 24.3956V22.4527C21.7828 21.8261 21.9072 21.7217 22.3426 21.7217C22.6532 21.7217 23.2129 21.8885 24.4771 23.1212C25.9276 24.5836 26.1763 25.2521 26.9847 25.2521H29.1193C29.741 25.2521 30.0312 24.9386 29.8653 24.3328C29.679 23.727 28.9741 22.8497 28.0622 21.8053C27.5648 21.2207 26.8188 20.5729 26.5909 20.2594C26.2803 19.8415 26.363 19.6744 26.5909 19.2985C26.5701 19.2985 29.1817 15.5798 29.4507 14.3249" fill="#EA7A93"/>
</svg>
