<svg width="50" height="50" viewBox="0 0 50 50" fill="none" xmlns="http://www.w3.org/2000/svg">
<path d="M44.5159 10.8367C44.5141 10.8186 44.511 10.801 44.508 10.7834C44.5069 10.7775 44.5064 10.7714 44.5052 10.7656C44.501 10.7445 44.4956 10.724 44.4897 10.7037C44.489 10.7013 44.4885 10.6986 44.4877 10.6962C44.4814 10.6753 44.4739 10.655 44.4658 10.635C44.465 10.633 44.4643 10.6308 44.4635 10.6288C44.4556 10.6097 44.4466 10.5912 44.4372 10.573C44.4357 10.57 44.4344 10.5668 44.4328 10.5638C44.4237 10.5469 44.4136 10.5306 44.4034 10.5145C44.4007 10.5104 44.3986 10.5061 44.3958 10.5021C44.3858 10.487 44.3747 10.4727 44.3635 10.4584C44.3599 10.4537 44.3567 10.4488 44.3529 10.4442C44.339 10.4273 44.3241 10.4112 44.3088 10.3955C44.3073 10.394 44.3061 10.3925 44.3046 10.391L34.1285 0.214873C34.1268 0.213112 34.1248 0.211644 34.1229 0.209883C34.1077 0.194912 34.0919 0.180431 34.0754 0.16683C34.07 0.162427 34.0643 0.158708 34.0588 0.154501C34.0453 0.144031 34.0319 0.133562 34.0178 0.12407C34.0128 0.120744 34.0075 0.118004 34.0025 0.114775C33.9872 0.105088 33.972 0.095499 33.956 0.0869863C33.9525 0.0851272 33.9488 0.0835616 33.9451 0.0818004C33.9274 0.0727006 33.9094 0.0638943 33.8909 0.0561644C33.8886 0.0551859 33.8861 0.054501 33.8837 0.0535225C33.8639 0.0455969 33.844 0.0381605 33.8234 0.0318982C33.8208 0.0311155 33.8181 0.0306262 33.8155 0.0298434C33.7953 0.0239726 33.7749 0.018591 33.7541 0.0143836C33.7479 0.0131115 33.7415 0.0126223 33.7353 0.011546C33.7179 0.00851272 33.7006 0.00547945 33.6828 0.0037182C33.6587 0.00127202 33.6342 0 33.6096 0H9.34349C7.21237 0 5.47852 1.73386 5.47852 3.86497V46.135C5.47852 48.2661 7.21237 50 9.34349 50H40.6546C42.7858 50 44.5196 48.2661 44.5196 46.135V10.91C44.5196 10.8854 44.5183 10.861 44.5159 10.8367ZM34.3435 2.50548L42.0141 10.1761H36.7407C35.4189 10.1761 34.3435 9.10078 34.3435 7.77886V2.50548ZM40.6546 48.5323H9.34349C8.02167 48.5323 6.94623 47.4569 6.94623 46.135V3.86497C6.94623 2.54305 8.02167 1.46771 9.34349 1.46771H32.8758V7.77886C32.8758 9.90998 34.6096 11.6438 36.7407 11.6438H43.0519V46.135C43.0519 47.4569 41.9765 48.5323 40.6546 48.5323Z" fill="#EA7A93"/>
<path d="M38.3057 24.2661H33.6089C33.2036 24.2661 32.875 24.5946 32.875 25C32.875 25.4054 33.2036 25.7338 33.6089 25.7338H38.3057C38.711 25.7338 39.0396 25.4054 39.0396 25C39.0396 24.5946 38.711 24.2661 38.3057 24.2661Z" fill="#EA7A93"/>
<path d="M11.6909 25.7338H30.4777C30.883 25.7338 31.2115 25.4054 31.2115 25C31.2115 24.5946 30.883 24.2661 30.4777 24.2661H11.6909C11.2856 24.2661 10.957 24.5946 10.957 25C10.957 25.4054 11.2856 25.7338 11.6909 25.7338Z" fill="#EA7A93"/>
<path d="M38.3072 14.8728H18.7378C18.3325 14.8728 18.0039 15.2013 18.0039 15.6067C18.0039 16.012 18.3325 16.3405 18.7378 16.3405H38.3072C38.7125 16.3405 39.0411 16.012 39.0411 15.6067C39.0411 15.2013 38.7125 14.8728 38.3072 14.8728Z" fill="#EA7A93"/>
<path d="M11.6909 16.3405H15.6051C16.0104 16.3405 16.3389 16.012 16.3389 15.6067C16.3389 15.2013 16.0104 14.8728 15.6051 14.8728H11.6909C11.2856 14.8728 10.957 15.2013 10.957 15.6067C10.957 16.012 11.2856 16.3405 11.6909 16.3405Z" fill="#EA7A93"/>
<path d="M38.3059 33.6595H23.4331C23.0278 33.6595 22.6992 33.988 22.6992 34.3934C22.6992 34.7988 23.0278 35.1273 23.4331 35.1273H38.3059C38.7112 35.1273 39.0397 34.7988 39.0397 34.3934C39.0397 33.988 38.7112 33.6595 38.3059 33.6595Z" fill="#EA7A93"/>
<path d="M20.3015 33.6595H11.6909C11.2856 33.6595 10.957 33.988 10.957 34.3934C10.957 34.7988 11.2856 35.1273 11.6909 35.1273H20.3015C20.7067 35.1273 21.0353 34.7988 21.0353 34.3934C21.0353 33.988 20.7067 33.6595 20.3015 33.6595Z" fill="#EA7A93"/>
<path d="M38.3054 19.5695H11.6909C11.2856 19.5695 10.957 19.8979 10.957 20.3033C10.957 20.7087 11.2856 21.0372 11.6909 21.0372H38.3054C38.7106 21.0372 39.0392 20.7087 39.0392 20.3033C39.0392 19.8979 38.7106 19.5695 38.3054 19.5695Z" fill="#EA7A93"/>
<path d="M38.3054 28.9628H11.6909C11.2856 28.9628 10.957 29.2912 10.957 29.6966C10.957 30.102 11.2856 30.4305 11.6909 30.4305H38.3054C38.7106 30.4305 39.0392 30.102 39.0392 29.6966C39.0392 29.2912 38.7106 28.9628 38.3054 28.9628Z" fill="#EA7A93"/>
</svg>
