<svg width="97" height="97" viewBox="0 0 97 97" fill="none" xmlns="http://www.w3.org/2000/svg">
<g clip-path="url(#clip0_7_179)">
<path d="M78.8325 56.9097C53.3384 60.2175 30.6782 54.5481 9.50116 40.6041C11.6344 39.3135 12.8799 40.3522 13.8789 40.9716C21.6462 45.4245 30.1912 47.9613 38.6308 50.5584C50.7885 54.3207 63.1557 54.6003 75.7336 53.0785C76.2791 53.0465 76.7851 52.8272 77.964 52.4329C72.503 49.7429 66.207 50.1924 61.8058 46.5457C61.9775 46.2375 62.0873 45.8244 62.2587 45.5161C66.0866 46.2682 69.998 47.0425 73.8483 47.7121C77.6982 48.3816 81.4862 48.9462 85.3142 49.6983C88.117 50.2664 88.9361 51.8995 87.2741 54.1114C85.1636 57.0003 82.6174 59.508 80.2165 62.1428C79.9613 62.4288 79.6007 62.7752 79.2225 62.8516C78.2149 62.9376 77.2732 62.7758 76.2041 62.757C76.2568 61.8864 76.0802 60.8664 76.3613 60.145C76.7922 59.1981 77.5969 58.5274 78.8325 56.9097Z" fill="#F57C00"/>
</g>
<defs>
<clipPath id="clip0_7_179">
<rect width="79" height="79" fill="white" transform="translate(20.2939) rotate(14.8853)"/>
</clipPath>
</defs>
</svg>
