<svg width="128" height="128" viewBox="0 0 128 128" fill="none" xmlns="http://www.w3.org/2000/svg">
<path d="M30 42C33.866 42 37 38.866 37 35C37 31.134 33.866 28 30 28C26.134 28 23 31.134 23 35C23 38.866 26.134 42 30 42Z" fill="#EEEEEE" stroke="#B0BEC5" stroke-width="2" stroke-miterlimit="10" stroke-linejoin="round"/>
<path d="M94 95.5999L32.2 90.1999C30 89.9999 28.4 88.0999 28.6 85.8999L31.7 49.9999C31.9 47.7999 33.8 46.1999 36 46.3999L97.8 51.7999C100 51.9999 101.6 53.8999 101.4 56.0999L98.3 91.9999C98.1 94.1999 96.2 95.7999 94 95.5999Z" fill="#B3E5FC" stroke="#90A4AE" stroke-width="2" stroke-miterlimit="10" stroke-linejoin="round"/>
<path d="M94 76.8999L30 79.0999V33.0999L94 30.8999V76.8999Z" fill="#DCEDC8" stroke="#AFB42B" stroke-width="2" stroke-miterlimit="10" stroke-linejoin="round"/>
<path d="M93.6768 30.9683L29.9648 37.0486L34.335 82.8416L98.047 76.7613L93.6768 30.9683Z" fill="#DCEDC8" stroke="#AFB42B" stroke-width="2" stroke-miterlimit="10" stroke-linejoin="round"/>
<path d="M103.3 57.5L101.9 73.4L100 73.2L97 73L86 72C81.6 71.6 78.3 67.7 78.7 63.3C79.1 59.1 82.6 56 86.7 56C86.9 56 87.2 56 87.4 56L96.9 56.8L100 57.1L103.3 57.5Z" fill="#FFA726"/>
<path d="M94 37C97.3 37 100 39.7 100 43V57.2L96.9 56.9L97 56V43C97 41.3 95.7 40 94 40H28C28 38.3 29.3 37 31 37H94Z" fill="#FFB74D"/>
<path d="M86 72L97 73V85C97 86.7 95.7 88 94 88H28V40H94C95.7 40 97 41.3 97 43V56L96.9 56.9L87.4 56.1C87.2 56.1 86.9 56.1 86.7 56.1C82.6 56.1 79.1 59.2 78.7 63.4C78.3 67.7 81.6 71.6 86 72Z" fill="#FFA726"/>
<path d="M94 91H31C29.3 91 28 89.7 28 88H94C95.7 88 97 86.7 97 85V73L100 73.3V85C100 88.3 97.3 91 94 91Z" fill="#FB8C00"/>
<path d="M100 73.2V85C100 88.3 97.3 91 94 91H31C29.3 91 28 89.7 28 88" stroke="#F57C00" stroke-width="2" stroke-miterlimit="10" stroke-linejoin="round"/>
<path d="M28 40V88" stroke="#F57C00" stroke-width="2" stroke-miterlimit="10" stroke-linejoin="round"/>
<path d="M100 57.2V43C100 39.7 97.3 37 94 37H31C29.3 37 28 38.3 28 40" stroke="#F57C00" stroke-width="2" stroke-miterlimit="10" stroke-linejoin="round"/>
<path d="M97 73V85C97 86.7 95.7 88 94 88H28" stroke="#FFCCBC" stroke-width="2" stroke-miterlimit="10" stroke-linecap="round" stroke-linejoin="round" stroke-dasharray="4 3"/>
<path d="M97 56V43C97 41.3 95.7 40 94 40H28" stroke="#FBE9E7" stroke-width="2" stroke-miterlimit="10" stroke-linecap="round" stroke-linejoin="round" stroke-dasharray="4 3"/>
<path d="M100 57.2L103.3 57.5L101.9 73.4L100 73.2L97 73L86 72C81.6 71.6 78.3 67.7 78.7 63.3C79.1 59.1 82.6 56 86.7 56C86.9 56 87.2 56 87.4 56L96.9 56.8L100 57.2Z" stroke="#F57C00" stroke-width="2" stroke-miterlimit="10" stroke-linejoin="round"/>
<path d="M90 64.5C90 66.2 88.7 67.5 87 67.5" stroke="#FB8C00" stroke-width="2" stroke-miterlimit="10" stroke-linecap="round" stroke-linejoin="round"/>
<path d="M83 64.5C83 62.3 84.8 60.5 87 60.5" stroke="#FFCC80" stroke-width="2" stroke-miterlimit="10" stroke-linecap="round" stroke-linejoin="round"/>
<path d="M21 115C27.0751 115 32 110.075 32 104C32 97.9249 27.0751 93 21 93C14.9249 93 10 97.9249 10 104C10 110.075 14.9249 115 21 115Z" fill="#FFE082" stroke="#FFB74D" stroke-width="2" stroke-miterlimit="10" stroke-linejoin="round"/>
<path d="M34 120C38.9706 120 43 115.971 43 111C43 106.029 38.9706 102 34 102C29.0294 102 25 106.029 25 111C25 115.971 29.0294 120 34 120Z" fill="#FFECB3" stroke="#FFAB91" stroke-width="2" stroke-miterlimit="10" stroke-linejoin="round"/>
<path d="M64 114C67.866 114 71 110.866 71 107C71 103.134 67.866 100 64 100C60.134 100 57 103.134 57 107C57 110.866 60.134 114 64 114Z" fill="#EEEEEE" stroke="#B0BEC5" stroke-width="2" stroke-miterlimit="10" stroke-linejoin="round"/>
<path d="M109 39C113.971 39 118 34.9706 118 30C118 25.0294 113.971 21 109 21C104.029 21 100 25.0294 100 30C100 34.9706 104.029 39 109 39Z" fill="#FFECB3" stroke="#FFAB91" stroke-width="2" stroke-miterlimit="10" stroke-linejoin="round"/>
<path d="M78 22C81.866 22 85 18.866 85 15C85 11.134 81.866 8 78 8C74.134 8 71 11.134 71 15C71 18.866 74.134 22 78 22Z" fill="#EEEEEE" stroke="#B0BEC5" stroke-width="2" stroke-miterlimit="10" stroke-linejoin="round"/>
</svg>
