<svg width="55" height="55" viewBox="0 0 55 55" fill="none" xmlns="http://www.w3.org/2000/svg">
<path d="M24.9541 50.8839C25.6383 51.5681 26.5579 51.9494 27.5224 51.9494C28.4757 51.9494 29.4178 51.5569 30.0907 50.8839L50.2447 30.73C53.3065 27.6682 54.9888 23.597 55 19.2791C55 14.95 53.3177 10.8788 50.2559 7.81705C47.1941 4.75527 43.1342 3.07297 38.8051 3.07297C34.5544 3.07297 30.5506 4.69919 27.5112 7.66004C24.4606 4.68798 20.4456 3.05054 16.1837 3.05054C11.8658 3.05054 7.80587 4.73284 4.74409 7.78341C1.6823 10.8452 0 14.9164 0 19.2455C0 23.5634 1.69352 27.6346 4.7553 30.6963L24.9541 50.8839ZM6.69555 9.73488C9.23022 7.20021 12.606 5.79829 16.1949 5.79829C19.7838 5.79829 23.1709 7.20021 25.7168 9.74609L26.5467 10.576C26.8046 10.834 27.1523 10.9798 27.5224 10.9798C27.8813 10.9798 28.2402 10.834 28.4982 10.576L29.3057 9.76852C31.8515 7.22264 35.2274 5.82072 38.8275 5.82072C42.4164 5.82072 45.7922 7.22264 48.3269 9.75731C50.8728 12.3032 52.2635 15.679 52.2635 19.2679C52.2635 22.8568 50.8615 26.2326 48.3157 28.7785L28.1505 48.9437C27.8252 49.2689 27.2308 49.2689 26.8944 48.9437L6.70677 28.7561C4.16089 26.2102 2.75897 22.8344 2.75897 19.2455C2.75897 15.6566 4.16089 12.2808 6.69555 9.73488Z" fill="#FFC5D2"/>
<path fill-rule="evenodd" clip-rule="evenodd" d="M39.507 19.2188C39.7017 18.6019 39.507 18.1534 38.6457 18.1534H35.7817C35.0593 18.1534 34.7257 18.5461 34.531 18.9661C34.531 18.9661 33.0577 22.5536 31.0004 24.8795C30.3332 25.5521 30.0275 25.7763 29.666 25.7763C29.4713 25.7763 29.2209 25.5521 29.2209 24.9358V19.1898C29.2209 18.4613 28.9988 18.125 28.3869 18.125H23.8828C23.4377 18.125 23.1598 18.4613 23.1598 18.7977C23.1598 19.4982 24.1885 19.6666 24.2995 21.6283V25.8906C24.2995 26.8154 24.1355 26.9844 23.7712 26.9844C22.7984 26.9844 20.4353 23.369 19.0178 19.2494C18.7422 18.4334 18.4622 18.125 17.7392 18.125H14.8479C14.0139 18.125 13.875 18.5171 13.875 18.9377C13.875 19.6945 14.8479 23.5057 18.4064 28.5501C20.7695 31.9954 24.1333 33.8471 27.1635 33.8471C28.9988 33.8471 29.2209 33.4266 29.2209 32.726V30.1196C29.2209 29.2791 29.3877 29.1391 29.9717 29.1391C30.3884 29.1391 31.1393 29.3627 32.8352 31.0165C34.7809 32.9781 35.1145 33.875 36.199 33.875H39.0624C39.8964 33.875 40.2858 33.4545 40.0632 32.6418C39.8133 31.8291 38.8677 30.6523 37.6444 29.2512C36.9772 28.467 35.9764 27.598 35.6707 27.1774C35.254 26.6169 35.365 26.3927 35.6707 25.8884C35.6428 25.8884 39.1461 20.8998 39.507 19.2166" fill="white"/>
</svg>
